<?xml version="1.0" standalone="no"?>
<!DOCTYPE svg PUBLIC "-//W3C//DTD SVG 20010904//EN"
 "http://www.w3.org/TR/2001/REC-SVG-20010904/DTD/svg10.dtd">
<svg version="1.0" xmlns="http://www.w3.org/2000/svg"
 width="300.000000pt" height="88.000000pt" viewBox="0 0 300.000000 88.000000"
 preserveAspectRatio="xMidYMid meet">
<metadata>
Created by potrace 1.10, written by Peter Selinger 2001-2011
</metadata>
<g transform="translate(0.000000,88.000000) scale(0.100000,-0.100000)"
fill="#000000" stroke="none">
<path d="M375 855 c-5 -2 -22 -6 -37 -9 -25 -6 -28 -11 -28 -49 0 -40 -3 -45
-36 -60 -21 -11 -32 -22 -28 -29 4 -6 3 -8 -4 -4 -32 20 -123 -120 -137 -211
-6 -35 -4 -43 9 -43 12 0 16 -10 16 -36 0 -20 4 -33 10 -29 5 3 7 19 4 34 -5
26 -3 29 25 33 19 3 31 0 31 -7 0 -6 -10 -11 -21 -11 -12 1 -24 -6 -27 -14 -3
-12 -2 -12 8 -3 9 9 19 9 32 2 11 -6 21 -9 23 -7 2 2 -1 25 -6 53 -12 66 18
132 74 158 20 9 37 23 37 31 0 9 20 19 50 27 l50 13 0 43 c0 41 1 43 29 43 28
0 30 -2 28 -41 -2 -40 -1 -42 41 -54 23 -7 52 -24 63 -38 10 -14 29 -27 42
-29 28 -4 85 -111 70 -130 -12 -16 -16 -78 -5 -78 4 0 14 6 21 13 10 10 16 8
28 -10 21 -31 33 -29 33 7 0 17 5 30 10 30 15 0 12 61 -6 114 -19 56 -99 146
-152 172 -35 18 -37 21 -34 61 l3 41 -51 11 c-47 10 -142 14 -165 6z m179 -21
c9 -4 16 -18 16 -34 0 -27 -1 -28 -32 -19 -18 5 -60 9 -93 9 -33 0 -75 -4 -93
-9 -31 -9 -32 -9 -32 19 0 26 5 30 43 39 41 10 160 7 191 -5z m-144 -99 c0
-27 -4 -35 -17 -35 -29 -1 -105 -39 -99 -49 4 -5 2 -12 -3 -15 -5 -4 -8 2 -7
11 2 10 -3 27 -10 38 -18 25 -18 32 2 39 8 3 13 2 10 -3 -3 -5 0 -14 8 -20 11
-9 12 -6 8 14 -2 14 -3 25 -1 25 2 0 22 7 44 15 59 21 65 19 65 -20z m183 3
c26 -11 47 -23 47 -27 0 -3 -8 -16 -18 -29 l-17 -22 -40 20 c-21 11 -47 20
-57 20 -14 0 -18 8 -18 36 0 34 1 36 28 29 15 -4 48 -16 75 -27z m-349 -55 c4
-5 13 -8 19 -8 18 -1 11 -20 -28 -74 -20 -28 -39 -68 -43 -93 -7 -39 -10 -43
-40 -46 -30 -3 -32 -1 -32 30 0 40 37 121 74 166 29 33 37 37 50 25z m466 -33
c35 -45 70 -126 70 -165 0 -22 -4 -25 -35 -25 -31 0 -35 3 -35 25 0 58 -77
174 -104 158 -6 -4 -5 1 3 10 7 9 17 14 22 11 5 -3 12 2 15 10 10 26 31 18 64
-24z m50 -222 c-1 -22 -1 -22 -15 -4 -8 11 -21 16 -30 13 -8 -4 -15 -2 -15 3
0 6 14 10 30 10 25 0 30 -4 30 -22z"/>
<path d="M396 832 c-22 -5 -20 -32 2 -32 10 0 24 6 31 13 11 10 12 9 6 -1 -6
-11 -3 -12 14 -3 16 9 21 9 21 0 0 -7 2 -10 6 -7 3 3 21 2 40 -2 27 -6 34 -5
34 7 0 9 -6 13 -15 9 -8 -3 -15 -1 -15 3 0 9 -94 19 -124 13z"/>
<path d="M337 732 c-20 -9 -26 -17 -19 -24 12 -12 64 2 69 19 6 18 -20 20 -50
5z"/>
<path d="M507 743 c-10 -10 -8 -33 2 -33 5 0 12 8 14 18 4 13 5 14 6 1 0 -8
17 -23 36 -32 44 -21 45 -21 45 1 0 14 -2 15 -10 2 -5 -8 -10 -12 -11 -7 -1 4
-3 12 -4 17 -1 6 -3 13 -4 18 -1 4 -6 0 -11 -8 -8 -12 -10 -12 -10 5 0 15 -3
17 -9 7 -7 -11 -9 -11 -14 2 -7 17 -19 21 -30 9z"/>
<path d="M198 625 c-6 -14 -16 -25 -21 -25 -5 0 -3 -8 4 -17 10 -12 10 -14 1
-9 -7 4 -15 0 -19 -11 -3 -10 -13 -26 -21 -35 -13 -16 -13 -18 2 -24 22 -9 35
4 16 16 -12 8 -12 10 4 10 12 0 16 5 12 16 -3 8 -2 12 4 9 5 -3 12 6 16 20 3
14 11 22 17 18 6 -4 8 0 4 10 -3 9 0 18 9 21 19 7 18 26 -1 26 -9 0 -21 -11
-27 -25z"/>
<path d="M656 662 c-3 -5 2 -18 12 -28 9 -11 18 -26 20 -34 2 -8 10 -19 18
-23 8 -5 12 -12 9 -17 -3 -5 0 -19 6 -33 13 -28 39 -33 31 -5 -2 10 -8 18 -13
18 -5 0 -6 6 -3 13 2 7 -5 23 -16 35 -11 12 -18 22 -14 22 4 0 -2 8 -13 18
-11 9 -18 23 -16 30 5 13 -13 17 -21 4z"/>
<path d="M1774 664 c1 -36 5 -54 14 -54 17 0 16 96 -1 103 -10 4 -13 -8 -13
-49z"/>
<path d="M894 685 c-24 -37 -6 -75 36 -75 16 0 30 4 30 10 0 5 -10 9 -22 7
-19 -2 -24 4 -26 27 -4 30 17 62 25 39 6 -18 23 -16 23 2 0 25 -48 18 -66 -10z"/>
<path d="M981 696 c-7 -8 -11 -30 -9 -48 3 -30 6 -33 38 -33 35 0 35 0 35 45
0 41 -2 45 -26 48 -14 2 -31 -4 -38 -12z m47 -40 c3 -32 1 -37 -15 -34 -19 3
-29 38 -19 65 10 26 31 8 34 -31z"/>
<path d="M1075 660 c0 -50 0 -50 33 -50 17 0 32 4 32 9 0 5 -9 7 -20 4 -14 -4
-20 0 -20 12 0 11 5 15 15 11 9 -3 15 0 15 10 0 10 -6 14 -15 10 -10 -4 -15 1
-15 15 0 16 4 19 20 14 11 -4 20 -2 20 4 0 6 -15 11 -32 11 -33 0 -33 0 -33
-50z"/>
<path d="M1158 660 c3 -33 8 -50 17 -50 8 0 11 7 8 19 -4 15 1 20 19 23 17 2
23 9 23 28 0 21 -5 25 -35 28 l-35 3 3 -51z"/>
<path d="M1270 694 c0 -14 3 -14 15 -4 13 11 15 6 15 -34 0 -34 4 -46 15 -46
11 0 15 12 15 46 0 40 2 45 15 34 12 -10 15 -10 15 4 0 12 -10 16 -45 16 -35
0 -45 -4 -45 -16z"/>
<path d="M1515 660 c0 -33 4 -50 13 -50 7 0 12 13 12 30 0 17 5 30 10 30 6 0
10 -13 10 -30 0 -18 5 -30 13 -30 9 0 12 11 9 35 -3 26 -9 35 -23 35 -10 0
-19 7 -19 15 0 8 -6 15 -12 15 -9 0 -13 -17 -13 -50z"/>
<path d="M2168 660 c2 -29 9 -50 15 -50 8 0 11 17 9 50 -2 29 -9 50 -15 50 -8
0 -11 -17 -9 -50z"/>
<path d="M2250 663 c5 -45 7 -48 35 -48 28 0 30 3 35 48 4 35 3 47 -7 47 -9 0
-13 -15 -13 -45 0 -35 -4 -45 -16 -45 -13 0 -15 9 -12 45 2 36 0 45 -12 45
-13 0 -15 -9 -10 -47z"/>
<path d="M2812 658 c3 -37 6 -43 28 -46 22 -2 23 -1 8 8 -22 13 -24 50 -3 50
15 0 35 -37 35 -66 0 -8 -7 -14 -16 -14 -8 0 -12 -4 -9 -10 11 -18 24 -10 44
28 27 53 34 82 22 82 -6 0 -11 -9 -11 -19 0 -11 -4 -23 -10 -26 -6 -4 -10 5
-10 20 0 24 -3 26 -25 21 -14 -4 -25 -2 -25 4 0 5 -7 10 -16 10 -12 0 -14 -9
-12 -42z"/>
<path d="M1380 676 c-20 -26 -8 -61 23 -64 15 -2 27 1 27 6 0 6 -9 8 -20 5
-11 -3 -20 0 -20 6 0 6 9 11 20 11 22 0 26 20 8 38 -16 16 -23 15 -38 -2z"/>
<path d="M1456 675 c-18 -18 -19 -25 -10 -49 7 -17 54 -23 54 -6 0 5 -7 7 -15
4 -11 -5 -15 1 -15 21 0 21 4 26 16 21 10 -4 14 -1 12 6 -7 19 -24 20 -42 3z"/>
<path d="M1605 650 c0 -25 5 -40 13 -40 7 0 12 13 12 30 0 17 5 30 11 30 7 0
10 -12 7 -30 -3 -23 -1 -30 12 -30 12 0 15 8 12 35 -3 26 -9 35 -22 35 -10 0
-25 2 -32 5 -11 4 -14 -4 -13 -35z"/>
<path d="M1700 676 c-20 -26 -8 -61 22 -64 23 -3 29 2 34 24 5 20 2 31 -11 41
-24 17 -30 16 -45 -1z m35 -31 c0 -10 -6 -20 -12 -22 -8 -3 -13 5 -13 22 0 17
5 25 13 23 6 -3 12 -13 12 -23z"/>
<path d="M1833 682 c-12 -7 -16 -25 -14 -55 1 -14 8 -18 29 -15 21 2 28 9 30
32 4 36 -18 55 -45 38z"/>
<path d="M1912 681 c-7 -4 -11 -18 -10 -32 1 -13 -2 -34 -6 -46 -5 -16 -2 -23
13 -28 22 -7 61 10 61 25 0 6 8 10 18 10 15 0 17 6 14 35 -5 42 -22 47 -22 7
0 -37 -3 -40 -42 -34 -31 5 -32 6 -8 12 32 7 42 55 12 57 -10 1 -24 -2 -30 -6z"/>
<path d="M2036 677 c-11 -8 -17 -22 -14 -38 3 -22 8 -24 66 -26 l62 -3 0 29
c0 33 -20 54 -44 45 -23 -9 -20 -23 4 -17 33 9 22 -11 -16 -30 -39 -19 -54
-16 -54 14 0 16 4 19 21 14 15 -5 20 -3 17 6 -6 19 -21 21 -42 6z"/>
<path d="M2345 648 c0 -23 5 -38 13 -38 7 0 12 13 12 30 0 17 5 30 11 30 7 0
10 -12 7 -30 -3 -23 -1 -30 12 -30 12 0 15 8 12 34 -3 30 -8 35 -36 38 -31 3
-32 2 -31 -34z"/>
<path d="M2474 674 c3 -9 9 -27 12 -40 9 -34 28 -30 42 9 15 41 15 47 2 47 -5
0 -10 -12 -10 -26 0 -14 -4 -23 -10 -19 -5 3 -10 15 -10 26 0 11 -7 19 -16 19
-11 0 -14 -5 -10 -16z"/>
<path d="M2566 677 c-28 -20 -18 -61 17 -65 15 -2 27 1 27 7 0 6 -6 8 -14 5
-8 -3 -17 -1 -21 5 -4 7 4 11 19 11 30 0 33 12 10 34 -19 19 -16 19 -38 3z"/>
<path d="M2630 649 c0 -48 27 -56 32 -9 l3 29 33 -16 c35 -17 44 -38 12 -28
-11 4 -20 2 -20 -4 0 -6 14 -11 30 -11 34 0 38 14 13 43 -17 19 -17 20 0 14 9
-4 17 -2 17 3 0 16 -19 21 -38 11 -11 -6 -22 -7 -26 -4 -3 3 -17 8 -31 9 -23
2 -25 -1 -25 -37z"/>
<path d="M2430 645 c0 -24 5 -35 15 -35 10 0 15 11 15 35 0 24 -5 35 -15 35
-10 0 -15 -11 -15 -35z"/>
<path d="M2765 645 c0 -25 4 -35 15 -35 12 0 15 8 12 35 -2 19 -9 35 -16 35
-6 0 -11 -15 -11 -35z"/>
<path d="M416 604 c-24 -22 -37 -25 -75 -22 -25 3 -53 8 -62 12 -14 6 -18 -1
-24 -42 -15 -113 33 -232 118 -289 58 -39 101 -38 160 3 37 26 69 69 37 49 -9
-5 -11 -4 -6 4 4 6 11 9 16 6 21 -13 53 80 58 162 6 107 3 115 -40 101 -18 -6
-43 -16 -55 -21 -13 -6 -26 -7 -30 -4 -3 4 2 7 13 8 18 0 18 1 -1 9 -28 12
-37 12 -29 -2 5 -7 3 -8 -5 -4 -7 5 -10 11 -7 14 6 6 -23 42 -33 42 -3 0 -19
-12 -35 -26z m30 7 c-3 -5 1 -14 9 -21 11 -9 15 -34 15 -89 l1 -76 49 -38 c43
-33 48 -41 40 -58 -6 -10 -8 -19 -4 -19 4 0 -1 -9 -10 -19 -10 -11 -25 -17
-34 -14 -9 4 -13 2 -8 -5 3 -6 2 -13 -2 -16 -5 -3 -8 7 -7 22 4 57 5 58 25 34
10 -12 21 -18 24 -14 3 5 -17 28 -44 51 l-50 42 -50 -42 c-27 -23 -47 -46 -44
-51 3 -5 12 -1 19 9 7 10 17 18 22 19 4 0 16 4 26 9 23 10 49 -12 28 -24 -9
-6 -10 -11 -2 -15 6 -4 16 -4 21 -1 6 3 10 1 10 -4 0 -6 -9 -11 -20 -11 -11 0
-20 4 -20 9 0 5 -7 11 -15 15 -8 3 -14 0 -12 -7 3 -17 19 -27 43 -27 11 0 21
-6 21 -12 0 -7 -12 -13 -28 -13 -15 0 -27 4 -26 9 1 5 -4 11 -12 14 -9 3 -11
0 -6 -8 6 -9 3 -10 -12 -2 -30 16 -94 92 -88 102 4 6 3 20 0 31 -6 17 -9 19
-16 8 -6 -9 -7 -1 -4 21 4 29 3 31 -5 15 -9 -18 -10 -17 -5 5 2 14 5 45 5 70
l0 45 65 0 65 0 0 -67 c0 -45 -4 -68 -12 -68 -6 0 -9 2 -6 5 3 3 0 25 -7 48
-10 34 -17 43 -39 45 -28 4 -31 -1 -39 -60 l-6 -37 47 -3 47 -3 -43 -31 c-41
-30 -42 -32 -25 -51 10 -10 14 -13 8 -5 -7 11 3 26 43 61 l52 46 -6 68 c-4 49
-2 73 8 85 7 9 1 7 -16 -6 -16 -12 -36 -22 -45 -22 -9 1 -2 7 14 14 17 7 36
20 44 29 14 18 26 23 17 8z m158 -57 c18 -17 21 -60 6 -69 -5 -3 -18 -1 -27 4
-17 10 -17 10 0 11 24 0 21 16 -5 34 -21 15 -21 16 -3 17 20 0 20 1 0 9 -16 7
-17 9 -3 9 9 1 24 -6 32 -15z m-41 -25 c27 -17 28 -19 7 -13 -14 3 -29 12 -33
18 -5 6 -5 1 -2 -12 4 -14 1 -28 -10 -38 -19 -20 -16 -60 5 -56 12 3 13 1 2
-10 -26 -26 -43 2 -46 75 -2 67 -2 68 21 62 13 -3 38 -15 56 -26z m-193 -64
c0 -5 -12 -11 -27 -11 -16 -1 -22 0 -15 3 6 3 10 8 7 12 -2 5 4 8 15 7 11 0
20 -5 20 -11z m215 -5 c-3 -10 -1 -28 5 -40 8 -14 8 -26 0 -40 -10 -19 -12
-19 -35 -4 -27 18 -25 31 9 44 17 7 17 9 4 9 -20 1 -24 16 -8 26 6 4 8 11 5
16 -4 5 1 9 10 9 12 0 15 -6 10 -20z m-110 -106 c24 -15 26 -34 4 -34 -6 0 -8
4 -5 9 3 5 -6 12 -19 15 -14 4 -23 11 -20 16 8 13 12 13 40 -6z"/>
<path d="M1730 545 c-13 -16 -10 -47 5 -52 6 -2 10 13 10 32 0 40 1 39 -15 20z"/>
<path d="M2071 528 c0 -27 2 -29 8 -13 8 20 8 20 13 0 5 -17 6 -18 7 -2 0 10
-6 25 -14 33 -13 14 -15 12 -14 -18z"/>
<path d="M1754 535 c-9 -24 5 -34 44 -32 30 2 37 6 37 22 0 16 -7 20 -38 22
-25 1 -40 -3 -43 -12z"/>
<path d="M1850 525 c0 -16 6 -25 15 -25 18 0 20 16 4 26 -8 4 -7 9 2 15 11 7
10 9 -3 9 -13 0 -18 -8 -18 -25z"/>
<path d="M1890 525 c0 -14 5 -25 11 -25 5 0 8 4 5 9 -3 5 1 11 9 15 22 8 18
26 -5 26 -15 0 -20 -7 -20 -25z"/>
<path d="M1948 543 c6 -2 12 -13 12 -24 0 -28 17 -23 22 6 5 22 2 25 -21 24
-14 0 -20 -3 -13 -6z"/>
<path d="M1995 529 c-8 -11 3 -29 16 -29 6 0 7 5 4 10 -3 6 -2 10 4 10 5 0 13
-4 16 -10 10 -16 21 -12 21 9 0 13 -8 18 -28 19 -15 0 -30 -4 -33 -9z"/>
<path d="M961 444 c-14 -32 -14 -41 0 -27 6 6 17 9 24 6 10 -3 12 2 8 16 -8
32 -19 33 -32 5z"/>
<path d="M1020 445 c0 -18 5 -25 20 -25 15 0 20 6 19 28 l-1 27 -8 -25 c-8
-24 -8 -24 -9 -2 -1 30 -21 28 -21 -3z"/>
<path d="M1110 453 c0 -10 -4 -14 -8 -8 -13 18 -32 15 -32 -5 0 -16 7 -20 30
-20 26 0 29 3 28 25 -3 28 -18 35 -18 8z"/>
<path d="M1290 445 c0 -28 9 -31 29 -12 11 10 14 10 18 0 8 -22 33 -14 32 10
-1 16 -3 17 -6 5 -4 -16 -6 -16 -26 2 -28 27 -47 25 -47 -5z"/>
<path d="M1420 446 c0 -22 4 -25 41 -24 27 0 37 3 28 9 -11 7 -11 9 -1 9 7 0
10 5 7 10 -5 8 -11 8 -19 1 -7 -6 -16 -8 -20 -4 -4 4 -11 1 -16 -7 -6 -9 -10
-10 -10 -3 0 7 8 17 18 22 15 9 15 10 -5 11 -18 0 -23 -6 -23 -24z"/>
<path d="M1515 455 c16 -49 15 -48 30 -35 16 14 21 50 6 50 -5 0 -12 -10 -14
-22 l-4 -23 -2 23 c0 12 -5 22 -11 22 -5 0 -7 -7 -5 -15z"/>
<path d="M1923 454 c-4 -11 -8 -12 -13 -4 -9 15 -30 4 -30 -15 0 -9 11 -13 29
-13 22 1 30 6 34 24 5 27 -10 33 -20 8z"/>
<path d="M1967 463 c-15 -15 -7 -43 13 -43 11 0 20 5 20 10 0 6 -4 9 -9 8 -5
-2 -8 2 -7 7 0 6 4 9 9 8 4 -2 7 2 7 7 0 11 -23 14 -33 3z"/>
<path d="M2480 449 c0 -19 6 -24 25 -25 20 -2 25 3 25 22 0 13 -4 24 -10 24
-5 0 -10 -5 -10 -11 0 -8 -5 -8 -15 1 -13 10 -15 9 -15 -11z"/>
<path d="M2767 448 c5 -23 5 -23 -10 -3 -9 11 -17 18 -17 15 -8 -37 -7 -40 16
-40 13 0 24 6 24 13 0 8 4 7 10 -3 9 -13 10 -13 10 1 0 15 -18 39 -31 39 -4 0
-5 -10 -2 -22z"/>
<path d="M1140 439 c0 -14 7 -19 25 -19 18 0 25 5 25 19 0 13 -7 19 -25 19
-18 0 -25 -6 -25 -19z"/>
<path d="M1200 438 c0 -10 5 -18 10 -18 6 0 10 5 10 10 0 6 5 10 11 10 6 0 8
-9 4 -20 -9 -29 10 -25 23 5 14 31 15 46 2 25 -6 -10 -10 -11 -10 -3 0 7 -11
12 -25 11 -17 -2 -25 -8 -25 -20z"/>
<path d="M1630 451 c0 -3 4 -12 9 -20 7 -11 11 -10 20 5 9 17 10 17 11 2 0
-10 7 -18 16 -18 9 0 14 7 12 17 -2 12 -14 18 -36 19 -17 1 -32 -2 -32 -5z"/>
<path d="M1710 438 c0 -10 5 -18 11 -18 5 0 7 5 4 10 -3 6 1 10 10 10 9 0 13
-4 10 -10 -3 -5 1 -10 9 -10 9 0 16 8 16 19 0 14 -7 18 -30 17 -22 0 -30 -6
-30 -18z"/>
<path d="M1800 440 c0 -11 4 -20 10 -20 5 0 7 7 4 15 -4 8 -1 15 6 15 8 0 10
-9 6 -25 -8 -33 12 -33 24 1 13 32 13 43 0 24 -6 -10 -10 -11 -10 -2 0 6 -9
12 -20 12 -13 0 -20 -7 -20 -20z"/>
<path d="M2130 436 c0 -18 2 -19 11 -6 8 11 12 12 16 3 8 -20 45 -16 41 4 -2
12 -14 18 -36 19 -26 1 -32 -3 -32 -20z"/>
<path d="M2211 437 c0 -13 3 -16 6 -8 5 11 7 11 14 0 7 -12 9 -11 9 1 0 13 1
13 11 0 8 -13 10 -12 7 4 -2 11 -13 21 -25 22 -18 3 -23 -1 -22 -19z"/>
<path d="M2310 438 c0 -19 2 -20 10 -8 6 10 10 11 10 3 0 -7 11 -13 24 -13 19
0 23 4 19 20 -7 25 -23 26 -24 3 0 -15 -2 -15 -7 -3 -11 24 -32 22 -32 -2z"/>
<path d="M2397 454 c-14 -15 -6 -34 14 -34 14 0 19 5 17 17 -3 18 -20 27 -31
17z"/>
<path d="M2660 437 c0 -18 2 -19 11 -7 8 11 12 12 16 3 8 -21 33 -15 33 7 0
11 -5 20 -11 20 -5 0 -7 -5 -3 -12 5 -7 3 -8 -7 -2 -26 16 -39 13 -39 -9z"/>
<path d="M2810 441 c0 -23 34 -30 44 -8 5 10 7 10 12 0 9 -19 36 -16 32 4 -2
11 -16 17 -45 20 -38 4 -43 2 -43 -16z"/>
<path d="M1775 380 c-3 -5 -1 -10 6 -10 10 0 10 -3 1 -12 -16 -16 -15 -28 2
-28 8 0 14 10 14 25 0 28 -13 41 -23 25z"/>
<path d="M1870 382 c-23 -10 -22 -31 0 -29 12 1 20 8 20 19 0 10 -1 18 -2 17
-2 0 -10 -3 -18 -7z"/>
<path d="M1910 355 c0 -22 4 -34 10 -30 6 3 10 17 10 30 0 13 -4 27 -10 30 -6
4 -10 -8 -10 -30z"/>
<path d="M2089 388 c-8 -35 -5 -58 5 -58 15 0 19 47 5 56 -5 3 -9 4 -10 2z"/>
<path d="M2124 377 c-7 -20 1 -47 15 -47 17 0 22 33 7 49 -14 13 -16 13 -22
-2z"/>
<path d="M2165 381 c-3 -6 -1 -11 5 -11 8 0 8 -6 0 -20 -9 -17 -8 -20 9 -20
15 0 19 6 18 27 -2 28 -21 42 -32 24z"/>
<path d="M2219 388 c-8 -35 -5 -58 5 -58 15 0 19 47 5 56 -5 3 -9 4 -10 2z"/>
<path d="M1641 373 c0 -6 -10 -10 -21 -8 -21 4 -28 -19 -10 -30 6 -3 10 0 10
7 0 9 3 9 10 -2 7 -11 10 -11 10 -2 0 8 5 10 13 5 21 -13 47 -13 47 0 0 8 4 7
11 -3 9 -12 10 -12 5 3 -3 10 -6 21 -6 23 0 2 -9 4 -20 4 -11 0 -20 -4 -20
-10 0 -17 -18 -11 -23 8 -3 9 -5 12 -6 5z"/>
<path d="M1820 355 c0 -14 6 -25 14 -25 9 0 12 8 8 25 -2 14 -8 25 -13 25 -5
0 -9 -11 -9 -25z"/>
<path d="M216 345 c-6 -22 -9 -23 -32 -15 -36 14 -36 13 -19 -20 9 -17 14 -34
11 -39 -8 -12 64 -76 111 -100 24 -12 60 -25 80 -30 29 -7 32 -9 13 -10 -14 0
-49 10 -79 24 -51 24 -54 24 -67 8 -23 -30 -16 -43 33 -64 74 -32 173 -45 246
-32 64 11 167 50 167 63 0 4 -8 17 -17 29 -17 19 -20 19 -43 6 l-25 -15 26 6
c17 3 30 0 38 -10 11 -14 7 -18 -33 -36 -114 -48 -243 -49 -351 -1 -40 18 -46
23 -35 36 16 19 31 20 24 1 -3 -8 0 -17 7 -22 9 -5 10 -2 6 9 -8 21 -11 21 47
1 37 -13 72 -15 152 -12 58 3 107 1 110 -3 2 -4 18 -3 34 3 17 5 28 14 25 18
-7 11 -45 0 -45 -12 0 -5 -5 -6 -11 -2 -8 4 -7 9 2 16 9 5 3 6 -16 2 -21 -4
-15 2 21 19 63 31 135 93 128 112 -3 7 2 25 11 39 19 29 18 30 -20 16 -23 -9
-27 -7 -36 17 l-10 27 -20 -35 c-11 -19 -23 -41 -27 -49 -5 -8 -32 -27 -62
-43 -47 -24 -62 -27 -127 -23 -60 3 -83 9 -120 32 -25 16 -47 36 -49 45 -2 15
-33 69 -39 69 -2 0 -6 -11 -9 -25z m22 -17 c-2 -6 -13 -17 -25 -25 -17 -12
-22 -11 -34 3 -12 15 -11 16 9 10 16 -5 24 -3 28 8 7 18 28 22 22 4z m466 -12
c17 7 22 -11 6 -21 -12 -8 -62 30 -52 39 3 4 12 0 18 -9 7 -9 18 -13 28 -9z
m-346 -94 c95 -29 224 -2 276 57 23 26 38 27 59 3 16 -17 15 -20 -16 -50 -76
-73 -201 -105 -308 -78 -57 15 -159 72 -175 98 -4 5 4 20 16 33 l23 24 43 -38
c23 -20 60 -43 82 -49z"/>
<path d="M237 263 c-4 -3 -7 -10 -7 -14 0 -13 60 -40 72 -33 7 4 1 12 -16 21
-14 8 -31 11 -36 8 -6 -3 -10 -2 -10 4 0 5 6 12 13 14 6 3 7 6 1 6 -6 1 -14
-2 -17 -6z"/>
<path d="M642 257 c-7 -8 -9 -16 -6 -19 3 -3 -3 -5 -12 -4 -11 0 -20 -7 -22
-19 -2 -16 -1 -17 7 -5 5 8 13 11 17 8 3 -4 16 2 27 13 14 13 18 22 11 29 -8
8 -14 7 -22 -3z"/>
<path d="M315 212 c-3 -3 -5 -10 -5 -16 0 -6 5 -4 10 4 8 13 10 13 10 -1 0
-20 27 -33 34 -16 3 9 5 9 5 0 1 -17 21 -17 21 0 0 12 -66 38 -75 29z"/>
<path d="M530 199 c-13 -6 -28 -15 -32 -22 -6 -9 -8 -9 -8 1 0 8 -16 12 -45
12 -42 0 -58 -11 -35 -25 6 -3 10 0 10 7 0 9 3 9 10 -2 9 -13 10 -13 10 0 0
10 3 11 8 4 10 -15 62 -10 73 7 7 12 9 12 9 -1 1 -12 3 -11 14 3 11 14 15 15
19 5 4 -11 6 -11 6 0 1 7 6 10 11 7 6 -3 10 -1 10 4 0 13 -27 13 -60 0z"/>
<path d="M2020 356 c0 -21 21 -31 31 -15 14 22 11 29 -11 29 -11 0 -20 -6 -20
-14z"/>
<path d="M1278 294 c-12 -11 -10 -52 3 -59 14 -10 16 -5 9 33 -3 19 -8 30 -12
26z"/>
<path d="M1300 275 c0 -14 5 -25 10 -25 9 0 12 8 9 26 0 4 5 11 13 15 9 6 7 9
-9 9 -18 0 -23 -6 -23 -25z"/>
<path d="M1538 293 c-19 -5 -25 -43 -7 -43 5 0 7 5 4 10 -3 6 -1 10 4 10 6 0
11 -4 11 -10 0 -14 18 -12 23 3 2 6 2 2 0 -10 -2 -13 0 -23 5 -23 11 0 35 51
27 58 -3 3 -5 0 -5 -7 0 -8 -5 -7 -16 3 -16 17 -17 17 -46 9z"/>
<path d="M1637 293 c-4 -3 -7 -14 -7 -24 0 -16 8 -18 60 -18 56 1 60 3 60 25
0 17 -6 24 -20 24 -11 0 -20 -4 -20 -10 0 -5 -7 -7 -15 -4 -8 4 -17 -1 -21
-10 -7 -17 -34 -22 -34 -6 0 5 8 14 18 19 14 9 15 10 1 11 -9 0 -19 -3 -22 -7z"/>
<path d="M1970 276 c0 -24 4 -26 39 -26 22 0 41 3 44 8 2 4 2 2 1 -5 -5 -19
13 -25 36 -11 11 7 20 23 20 36 0 20 -3 22 -22 16 -27 -9 -42 -9 -85 1 -31 7
-33 6 -33 -19z"/>
<path d="M2258 293 c-11 -3 -18 -13 -17 -26 0 -21 1 -21 9 -2 7 18 8 19 15 3
4 -10 16 -18 26 -18 11 0 19 7 20 18 0 13 2 12 9 -6 10 -24 36 -39 48 -28 3 4
0 16 -7 28 -7 11 -8 17 -2 13 6 -3 11 -1 11 4 0 21 -29 11 -33 -11 l-4 -23 -2
23 c0 12 -7 22 -15 22 -8 0 -20 2 -28 4 -7 2 -21 2 -30 -1z"/>
<path d="M2390 275 c0 -14 5 -25 10 -25 6 0 10 10 10 23 0 18 2 19 10 7 8 -13
10 -12 10 3 0 10 -8 17 -20 17 -15 0 -20 -7 -20 -25z"/>
<path d="M1345 282 c-3 -3 -5 -11 -5 -19 0 -26 69 -8 70 19 0 8 -57 8 -65 0z"/>
<path d="M1421 268 c0 -22 1 -22 9 -3 9 20 9 20 10 0 1 -20 1 -20 9 0 8 20 8
20 13 0 5 -18 6 -18 7 3 1 17 -4 22 -24 22 -19 0 -25 -5 -24 -22z"/>
<path d="M1760 273 c0 -19 47 -46 62 -37 5 3 7 13 3 23 -5 13 -4 14 6 4 7 -7
20 -13 29 -13 13 0 13 1 0 10 -11 7 -11 10 -2 10 27 0 1 17 -28 18 -23 0 -30
-4 -30 -18 0 -13 -5 -17 -15 -14 -8 4 -15 10 -15 16 0 5 5 6 12 2 7 -4 8 -3 4
4 -11 18 -26 14 -26 -5z"/>
<path d="M1890 270 c0 -11 7 -20 15 -20 8 0 15 9 15 20 0 11 -7 20 -15 20 -8
0 -15 -9 -15 -20z"/>
<path d="M2480 270 c0 -16 7 -19 35 -18 19 1 32 5 29 10 -3 4 0 8 7 8 28 0 -5
15 -37 17 -28 1 -34 -2 -34 -17z"/>
<path d="M290 123 c0 -10 80 -36 88 -28 9 8 -1 14 -37 20 -19 3 -38 8 -43 11
-4 3 -8 2 -8 -3z"/>
<path d="M538 112 c-16 -2 -28 -8 -28 -13 0 -10 13 -10 50 0 31 9 15 18 -22
13z"/>
<path d="M370 31 c0 -12 6 -21 16 -21 9 0 14 7 12 17 -5 25 -28 28 -28 4z"/>
<path d="M410 30 c0 -25 35 -27 44 -4 10 26 -4 31 -21 9 -13 -16 -15 -17 -10
-2 4 9 2 17 -3 17 -6 0 -10 -9 -10 -20z"/>
<path d="M478 28 c5 -21 6 -21 13 -2 6 14 8 15 8 3 1 -21 81 -26 81 -5 0 18
-23 27 -40 16 -8 -5 -22 -4 -31 1 -28 15 -38 11 -31 -13z"/>
</g>
</svg>
